<svg xmlns="http://www.w3.org/2000/svg" viewBox="0 0 24 24"><g data-name="Youtube 2"><path fill="#303c42" d="M6 6.6v3.9a.5.5 0 0 0 1 0V6.6l2-4.91a.5.5 0 0 0-1-.37L6.5 5.15 5 1.32a.5.5 0 0 0-1 .37ZM9 9a2 2 0 0 0 4 0V6a2 2 0 0 0-4 0Zm1-3a1 1 0 0 1 2 0v3a1 1 0 0 1-2 0ZM16 11a2 2 0 0 0 1-.3.5.5 0 0 0 1-.2v-6a.5.5 0 0 0-1 0V9a1 1 0 0 1-2 0V4.5a.5.5 0 0 0-1 0V9a2 2 0 0 0 2 2Z"/><rect width="2" height="3" x="13" y="17" fill="#303c42" rx=".75" ry=".75"/><path fill="#303c42" d="M19.25 17h-.5a.75.75 0 0 0-.75.75V18h2v-.25a.75.75 0 0 0-.75-.75Z"/><path fill="#303c42" d="M20 12H4a3 3 0 0 0-3 3v5a3 3 0 0 0 3 3h16a3 3 0 0 0 3-3v-5a3 3 0 0 0-3-3ZM6 20.5a.5.5 0 0 1-1 0V15H3.5a.5.5 0 1 1 0-1h4a.5.5 0 1 1 0 1H6Zm5-1.25v.17a.47.47 0 0 1 0 .08v1a.5.5 0 0 1-.5.5.49.49 0 0 1-.41-.23 1.73 1.73 0 0 1-.84.23h-.5A1.75 1.75 0 0 1 7 19.25V16.5a.5.5 0 0 1 1 0v2.75a.75.75 0 0 0 .75.75h.5a.75.75 0 0 0 .75-.75V16.5a.5.5 0 0 1 1 0Zm5 0A1.75 1.75 0 0 1 14.25 21h-.5a1.73 1.73 0 0 1-.84-.23.49.49 0 0 1-.41.23.5.5 0 0 1-.5-.5v-6a.5.5 0 0 1 1 0v1.68a1.73 1.73 0 0 1 .75-.18h.5A1.75 1.75 0 0 1 16 17.75Zm5-.75a.5.5 0 0 1-.5.5H18v.25a.75.75 0 0 0 .75.75h.75a.49.49 0 0 0 .42-.26.5.5 0 0 1 .86.51 1.48 1.48 0 0 1-1.28.75h-.75A1.75 1.75 0 0 1 17 19.25v-1.5A1.75 1.75 0 0 1 18.75 16h.5A1.75 1.75 0 0 1 21 17.75Z"/></g></svg>